<svg
        id="Layer_1"
        xmlns="http://www.w3.org/2000/svg"
        viewBox="0 0 243.7 186.11"
>
    <g>
        <path
                fill="#519259"
                d="M157.61,35.48c-4.02,3.16-9.32,4.45-14.34,4.73-1.84.1-3.68.1-5.52-.02-.64-.04-3.25-.37-1.31-.08l3.77,4.95c.16-7.04,2.55-15.34,7.81-20.22,3.83-3.55,9.12-5.12,14.23-5.56,1.95-.17,3.92-.19,5.88-.1.66.03,4.06.42,2.06.12l-3.77-4.95c-.17,7.73-3,15.91-8.82,21.13-4.93,4.42,2.35,11.66,7.26,7.26,7.78-6.99,11.59-18.07,11.83-28.39.05-2.02-1.61-4.63-3.77-4.95-10.62-1.59-22.8.07-31.15,7.28-7.86,6.79-11.6,18.21-11.83,28.39-.05,2.02,1.61,4.63,3.77,4.95,10.94,1.64,22.35-.35,31.15-7.28,5.19-4.08-2.12-11.3-7.26-7.26Z"
        />
        <path
                fill="#519259"
                d="M96.82,41.15c10.77,8.61,25.24,11.02,38.68,8.99,2.15-.33,3.81-2.9,3.77-4.95-.27-12.67-4.94-27.13-14.8-35.52C114.08.84,98.96-1.3,85.79.69c-2.15.33-3.81,2.9-3.77,4.95.27,12.85,5.04,26.87,14.8,35.52,4.93,4.37,12.22-2.87,7.26-7.26-7.79-6.9-11.58-17.98-11.79-28.26l-3.77,4.95c-2.15.33,1.28-.1,2.07-.15,2.66-.17,5.33-.15,7.98.04,6.99.5,14.4,2.54,19.66,7.38,7.2,6.62,10.57,17.75,10.77,27.35l3.77-4.95c2.32-.35-1.39.11-2.07.15-2.47.16-4.95.16-7.42,0-6.76-.42-13.82-2.21-19.2-6.51s-12.42,3.13-7.26,7.26Z"
        />
        <path fill="#519259" d="M129.61,45.28v31.99c0,6.6,10.26,6.62,10.26,0v-31.99c0-6.6-10.26-6.62-10.26,0h0Z" />
    </g>
    <path
            fill="#f4eea9"
            d="M231.3,67.85l-19.92,70.61-152.68-.44-17.34-65.52s7.36-.44,23.49-3.1c16.13-2.65,28.68,3.14,37.51,2.51,8.83-.64,18.23-5.55,31.27-5.36,8.41.15,13.04,2.55,14.37,2.55s3.86-.84,7.57-.74c3.72.1,5.94,3.8,7.31,3.83s9.36-1.44,18.35-2.95,10.89,1.66,15.78,2.36,34.29-3.76,34.29-3.76Z"
    />
    <path
            fill="#f0bb62"
            d="M4.77,12.93h23.6l-4.77-3.63c9.57,39.37,19.14,78.74,28.71,118.11,1.35,5.57,2.71,11.15,4.06,16.72.51,2.1,2.64,3.63,4.77,3.63h146.39c2.17,0,4.19-1.54,4.77-3.63,9.11-33.09,18.21-66.18,27.32-99.27l3.88-14.08c1.69-6.14-7.84-8.76-9.53-2.63-9.11,33.09-18.21,66.18-27.32,99.27-1.29,4.69-2.58,9.39-3.88,14.08l4.77-3.63H61.15l4.77,3.63c-9.57-39.37-19.14-78.74-28.71-118.11-1.35-5.57-2.71-11.15-4.06-16.72-.51-2.1-2.64-3.63-4.77-3.63H4.77c-6.36,0-6.37,9.89,0,9.89h0Z"
    />
    <path
            fill="#f0bb62"
            d="M88.24,168.25c-.51,10.19-15.96,10.36-15.96,0s15.44-10.19,15.96,0c.32,6.33,10.21,6.37,9.89,0-.49-9.69-7.8-17.86-17.86-17.86s-17.86,8.16-17.86,17.86,8.17,17.86,17.86,17.86,17.37-8.18,17.86-17.86c.32-6.36-9.57-6.34-9.89,0Z"
    />
    <path
            fill="#f0bb62"
            d="M195.26,168.25c-.51,10.19-15.96,10.36-15.96,0s15.44-10.19,15.96,0c.32,6.33,10.21,6.37,9.89,0-.49-9.69-7.8-17.86-17.86-17.86s-17.86,8.16-17.86,17.86,8.17,17.86,17.86,17.86,17.37-8.18,17.86-17.86c.32-6.36-9.57-6.34-9.89,0Z"
    />
</svg>
