<svg width="100" height="74" viewBox="0 0 100 74" fill="none" xmlns="http://www.w3.org/2000/svg">
<path d="M52.3001 61.5126C50.516 63.0316 48.7759 63.1099 45.3691 62.9327C42.124 61.6761 39.2389 60.5395 36.5478 59.4404C28.3343 56.086 21.9272 53.0817 12.6042 48.0868C11.8699 47.1071 11.7303 46.585 12.6042 45.7631C18.71 42.5191 22.1864 41.5553 28.4826 41.3739C29.1931 41.379 29.8623 41.3914 30.4989 41.4171M52.3001 61.5126L41.8405 45.7631M52.3001 61.5126C52.3001 61.5126 53.845 62.0364 54.5685 61.5126M41.8405 45.7631C37.7164 42.3968 34.8811 41.5935 30.4989 41.4171M41.8405 45.7631L28.8607 31.5627C28.8607 31.5627 27.359 30.1848 28.8607 30.2718C30.3623 30.3587 31.212 30.4094 32.8933 30.53C38.7929 31.8384 41.1316 34.5718 45.4951 39.0502M30.4989 41.4171C24.9612 33.584 22.2553 29.0772 18.5271 20.7188C18.2112 19.542 18.218 18.8959 18.5271 17.7496C20.8551 16.617 23.5679 17.4916 23.6939 17.4914C23.8199 17.4912 39.3413 22.6266 47.0073 28.5935M47.0073 28.5935L45.4951 39.0502M47.0073 28.5935C52.4484 15.7321 58.4246 10.2646 71.581 2L73.3453 2.19364M45.4951 39.0502C48.932 43.6146 51.544 51.7014 51.544 51.7014C51.544 51.7014 54.2786 50.0134 57.22 48.6634M54.5685 61.5126C55.293 60.9881 54.8247 60.0689 55.3246 59.318C56.355 57.7702 57.2149 59.318 59.6092 57.3815C60.426 56.721 61.5751 55.3903 62.5713 53.896M54.5685 61.5126L68.8086 59.318C68.8086 59.318 88.9716 62.9734 87.9634 60.0925C86.9553 57.2116 73.8493 53.5087 73.8493 53.5087C81.3457 46.4769 86.4239 32.2292 86.1992 30.1426C85.9744 28.0561 85.317 28.3353 84.1829 28.3353C83.0487 28.3353 78.0379 28.0746 74.3534 29.4971M74.3534 29.4971C77.2903 18.9666 77.0577 13.0223 75.1095 2.38728L73.3453 2.19364M74.3534 29.4971C72.5605 40.4147 69.7849 45.6594 62.5713 53.896M62.5713 53.896C64.4954 51.0099 65.8492 47.5132 63.1377 47.054C61.7675 46.8219 59.4351 47.6468 57.22 48.6634M73.3453 2.19364C63.4133 18.9671 59.276 28.9137 57.22 48.6634" stroke="#9BC678" stroke-width="3"/>
<path d="M34.6006 59C34.159 60.3944 33.7031 62.2113 34.2513 63.565C34.9623 65.3208 38.0081 66.5241 38.0081 66.5241M38.0081 66.5241C38.0081 66.5241 45.4678 67.816 50.273 68.4589C57.1595 69.3804 66.411 64.6466 65.9633 63.565M38.0081 66.5241C38.0081 66.5241 39.0852 68.6996 40.1075 69.8247C42.3747 72.3198 49.0702 71.9824 50.273 71.9871C51.4759 71.9919 57.1139 71.0036 58.7811 70.3937C60.279 69.8458 62.2462 67.4374 62.3169 66.7517C64.2235 66.0485 64.8171 65.1211 65.9633 63.565M65.9633 63.565C65.9633 63.565 66.1737 60.3365 65.5872 59" stroke="#E6C06C" stroke-width="3"/>
</svg>
    